<svg width="148.000000" height="40.000000" viewBox="0 0 148 40" fill="none" xmlns="http://www.w3.org/2000/svg" xmlns:xlink="http://www.w3.org/1999/xlink">
	<desc>
			Created with Pixso.
	</desc>
	<defs>
		<clipPath id="clip2_190">
			<rect id="Logo / Rutube" width="148.000000" height="40.000000" fill="white" fill-opacity="0"/>
		</clipPath>
	</defs>
	<g clip-path="url(#clip2_190)">
		<path id="Vector" d="M16.51 11.54L0 11.54L0 29.89L4.59 29.89L4.59 23.92L13.4 23.92L17.42 29.89L22.56 29.89L18.13 23.89C19.51 23.67 20.5 23.15 21.1 22.32C21.71 21.5 22.01 20.18 22.01 18.42L22.01 17.04C22.01 15.99 21.9 15.17 21.71 14.54C21.52 13.9 21.19 13.35 20.72 12.86C20.22 12.39 19.67 12.06 19.01 11.84C18.35 11.65 17.53 11.54 16.51 11.54ZM28.77 11.54L28.77 24.47C28.77 25.02 28.88 25.38 29.1 25.57C29.32 25.76 29.76 25.85 30.42 25.85L39.95 25.85C40.58 25.85 41.02 25.76 41.24 25.57C41.46 25.38 41.6 25.02 41.6 24.47L41.6 11.54L46.19 11.54L46.19 24.36C46.19 25.41 46.08 26.26 45.89 26.89C45.7 27.55 45.37 28.1 44.9 28.57C44.4 29.07 43.85 29.4 43.19 29.59C42.53 29.81 41.71 29.89 40.69 29.89L29.68 29.89C28.64 29.89 27.81 29.81 27.15 29.59C26.49 29.4 25.94 29.07 25.47 28.57C24.97 28.1 24.64 27.55 24.45 26.89C24.26 26.26 24.18 25.41 24.18 24.36L24.18 11.54L28.77 11.54ZM61.74 29.89L61.74 15.58L70.63 15.58L70.63 11.54L48.26 11.54L48.26 15.58L57.15 15.58L57.15 29.89L61.74 29.89ZM77.29 11.54L77.29 24.47C77.29 25.02 77.4 25.38 77.62 25.57C77.84 25.76 78.28 25.85 78.94 25.85L88.46 25.85C89.1 25.85 89.54 25.76 89.76 25.57C89.98 25.38 90.11 25.02 90.11 24.47L90.11 11.54L94.71 11.54L94.71 24.36C94.71 25.41 94.6 26.26 94.41 26.89C94.21 27.55 93.88 28.1 93.42 28.57C92.92 29.07 92.37 29.4 91.71 29.59C91.05 29.81 90.22 29.89 89.21 29.89L78.2 29.89C77.15 29.89 76.33 29.81 75.66 29.59C75 29.4 74.45 29.07 73.99 28.57C73.49 28.1 73.16 27.55 72.97 26.89C72.77 26.26 72.69 25.41 72.69 24.36L72.69 11.54L77.29 11.54ZM118 16.87L118 16.52C118 14.81 117.56 13.54 116.68 12.75C115.8 11.95 114.4 11.54 112.53 11.54L96.92 11.54L96.92 29.89L113.43 29.89C115.3 29.89 116.71 29.51 117.59 28.71C118.47 27.91 118.91 26.64 118.91 24.94L118.91 24.55C118.91 22.85 118.47 21.64 117.59 20.92C117.42 20.81 117.26 20.73 117.09 20.65C116.93 20.56 116.68 20.45 116.38 20.34C116.98 20.01 117.4 19.57 117.64 19.08C117.86 18.58 118 17.84 118 16.87ZM140.17 15.58L125.14 15.58L125.14 18.69L140.17 18.69L139.81 22.74L125.14 22.74L125.14 25.85L140.91 25.85L140.91 29.89L120.55 29.89L120.55 11.54L140.17 11.54L140.17 15.58ZM15.76 19.87L4.59 19.87L4.59 15.58L15.76 15.58C16.4 15.58 16.84 15.69 17.06 15.88C17.28 16.08 17.42 16.43 17.42 16.96L17.42 18.5C17.42 19.05 17.28 19.41 17.06 19.6C16.84 19.79 16.4 19.87 15.76 19.87ZM101.52 18.88L101.52 15.58L111.78 15.58C112.44 15.58 112.88 15.69 113.1 15.88C113.32 16.08 113.43 16.43 113.43 16.96L113.43 17.51C113.43 18.06 113.32 18.42 113.1 18.61C112.88 18.8 112.44 18.88 111.78 18.88L101.52 18.88ZM101.52 25.85L101.52 22.54L112.72 22.54C113.35 22.54 113.79 22.65 114.01 22.85C114.23 23.04 114.37 23.4 114.37 23.92L114.37 24.47C114.37 25.02 114.23 25.38 114.01 25.57C113.79 25.76 113.35 25.85 112.72 25.85L101.52 25.85Z" fill="#FFFFFF" fill-opacity="1.000000" fill-rule="evenodd"/>
		<path id="Vector" d="M147.72 7.21C147.72 8.99 146.28 10.43 144.51 10.43C142.73 10.43 141.29 8.99 141.29 7.21C141.29 5.43 142.73 4 144.51 4C146.28 4 147.72 5.43 147.72 7.21Z" fill="#F41240" fill-opacity="1.000000" fill-rule="evenodd"/>
	</g>
</svg>
